<svg width="20" height="20" viewBox="0 0 20 20" fill="none" xmlns="http://www.w3.org/2000/svg">
<path d="M6.45835 3.33325C6.45835 3.16749 6.3925 3.00852 6.27529 2.89131C6.15808 2.7741 5.99911 2.70825 5.83335 2.70825C5.66759 2.70825 5.50862 2.7741 5.39141 2.89131C5.2742 3.00852 5.20835 3.16749 5.20835 3.33325V4.84659C4.6004 4.9328 4.03736 5.2156 3.60521 5.65181C3.17306 6.08803 2.89554 6.65369 2.81502 7.26242L2.74252 7.80659C2.73029 7.89825 2.71863 7.99047 2.70752 8.08325C2.7008 8.14098 2.7064 8.19949 2.72396 8.25489C2.74153 8.3103 2.77064 8.36135 2.80939 8.40467C2.84815 8.44798 2.89565 8.48259 2.94876 8.50619C3.00188 8.52979 3.05939 8.54186 3.11752 8.54158H16.8833C16.9415 8.54186 16.999 8.52979 17.0521 8.50619C17.1052 8.48259 17.1527 8.44798 17.1915 8.40467C17.2302 8.36135 17.2593 8.3103 17.2769 8.25489C17.2945 8.19949 17.3001 8.14098 17.2933 8.08325L17.2583 7.80659L17.1858 7.26242C17.1053 6.65369 16.8278 6.08803 16.3957 5.65181C15.9635 5.2156 15.4005 4.9328 14.7925 4.84659V3.33325C14.7925 3.16749 14.7267 3.00852 14.6095 2.89131C14.4922 2.7741 14.3333 2.70825 14.1675 2.70825C14.0018 2.70825 13.8428 2.7741 13.7256 2.89131C13.6084 3.00852 13.5425 3.16749 13.5425 3.33325V4.72325C11.1861 4.51378 8.81565 4.51378 6.45918 4.72325L6.45835 3.33325ZM17.4542 10.1883C17.4503 10.0814 17.405 9.98026 17.3278 9.90623C17.2507 9.8322 17.1478 9.79108 17.0408 9.79158H2.95918C2.85226 9.79108 2.74934 9.8322 2.6722 9.90623C2.59506 9.98026 2.54974 10.0814 2.54585 10.1883C2.49657 11.6963 2.58864 13.2057 2.82085 14.6966C2.90643 15.2459 3.17206 15.7511 3.576 16.1331C3.97994 16.515 4.49931 16.7519 5.05252 16.8066L6.04668 16.9049C8.67585 17.1633 11.3242 17.1633 13.9533 16.9049L14.9475 16.8066C15.5007 16.7519 16.0201 16.515 16.424 16.1331C16.828 15.7511 17.0936 15.2459 17.1792 14.6966C17.4114 13.2057 17.5035 11.6963 17.4542 10.1883Z" fill="#9B3CFF"/>
</svg>
