<svg width="20" height="20" viewBox="0 0 20 20" fill="none" xmlns="http://www.w3.org/2000/svg">
<path d="M17.0832 11.6667V8.33333C17.0832 5.19063 17.0832 3.61929 16.107 2.64298C15.1306 1.66667 13.5593 1.66667 10.4165 1.66667H9.58329C6.44065 1.66667 4.86932 1.66667 3.89301 2.64297C2.91669 3.61927 2.91668 5.1906 2.91666 8.33328L2.91663 11.6666C2.9166 14.8093 2.91658 16.3807 3.8929 17.357C4.86921 18.3333 6.44057 18.3333 9.58329 18.3333H10.4165C13.5593 18.3333 15.1306 18.3333 16.107 17.357C17.0832 16.3808 17.0832 14.8093 17.0832 11.6667Z" stroke="#6A94FF" stroke-width="1.5" stroke-linecap="round" stroke-linejoin="round"/>
<path d="M6.66663 5.83333H13.3333M6.66663 10H13.3333M6.66663 14.1667H9.99996" stroke="#6A94FF" stroke-width="1.5" stroke-linecap="round" stroke-linejoin="round"/>
</svg>
