<svg width="20" height="20" viewBox="0 0 20 20" fill="none" xmlns="http://www.w3.org/2000/svg">
<path d="M17.0833 11.6667V8.33341C17.0833 5.19071 17.0833 3.61937 16.1071 2.64306C15.1307 1.66675 13.5594 1.66675 10.4167 1.66675H9.58341C6.44077 1.66675 4.86944 1.66675 3.89313 2.64305C2.91682 3.61935 2.91681 5.19068 2.91678 8.33336L2.91675 11.6667C2.91672 14.8094 2.91671 16.3807 3.89302 17.3571C4.86933 18.3334 6.44069 18.3334 9.58341 18.3334H10.4167C13.5594 18.3334 15.1307 18.3334 16.1071 17.3571C17.0833 16.3808 17.0833 14.8094 17.0833 11.6667Z" stroke="#C084FF" stroke-width="1.5" stroke-linecap="round" stroke-linejoin="round"/>
<path d="M6.66675 5.83325H13.3334M6.66675 9.99992H13.3334M6.66675 14.1666H10.0001" stroke="#C084FF" stroke-width="1.5" stroke-linecap="round" stroke-linejoin="round"/>
</svg>
