<svg width="16" height="19" viewBox="0 0 16 19" fill="none" xmlns="http://www.w3.org/2000/svg">
<path d="M7.99998 0.666668C6.45289 0.666668 4.96916 1.28125 3.87519 2.37521C2.78123 3.46917 2.16665 4.95291 2.16665 6.5V9.44C2.16677 9.56927 2.13681 9.6968 2.07915 9.8125L0.648316 12.6733C0.578421 12.8131 0.545418 12.9684 0.55244 13.1245C0.559462 13.2806 0.606276 13.4324 0.688437 13.5653C0.770598 13.6982 0.885376 13.8079 1.02187 13.884C1.15837 13.9601 1.31205 14 1.46832 14H14.5317C14.6879 14 14.8416 13.9601 14.9781 13.884C15.1146 13.8079 15.2294 13.6982 15.3115 13.5653C15.3937 13.4324 15.4405 13.2806 15.4475 13.1245C15.4545 12.9684 15.4215 12.8131 15.3517 12.6733L13.9217 9.8125C13.8637 9.69687 13.8335 9.56934 13.8333 9.44V6.5C13.8333 4.95291 13.2187 3.46917 12.1248 2.37521C11.0308 1.28125 9.54708 0.666668 7.99998 0.666668ZM7.99998 16.5C7.48277 16.5003 6.97821 16.3401 6.55583 16.0416C6.13345 15.7431 5.81405 15.321 5.64165 14.8333H10.3583C10.1859 15.321 9.86651 15.7431 9.44413 16.0416C9.02176 16.3401 8.51719 16.5003 7.99998 16.5Z" fill="#6A94FF"/>
</svg>
