<svg width="20" height="20" viewBox="0 0 20 20" fill="none" xmlns="http://www.w3.org/2000/svg">
<path d="M9.99998 1.66675C8.45289 1.66675 6.96916 2.28133 5.87519 3.37529C4.78123 4.46925 4.16665 5.95299 4.16665 7.50008V10.4401C4.16677 10.5694 4.13681 10.6969 4.07915 10.8126L2.64832 13.6734C2.57842 13.8132 2.54542 13.9685 2.55244 14.1246C2.55946 14.2807 2.60628 14.4324 2.68844 14.5654C2.7706 14.6983 2.88538 14.808 3.02187 14.8841C3.15837 14.9602 3.31205 15.0001 3.46832 15.0001H16.5317C16.6879 15.0001 16.8416 14.9602 16.9781 14.8841C17.1146 14.808 17.2294 14.6983 17.3115 14.5654C17.3937 14.4324 17.4405 14.2807 17.4475 14.1246C17.4545 13.9685 17.4215 13.8132 17.3517 13.6734L15.9217 10.8126C15.8637 10.697 15.8335 10.5694 15.8333 10.4401V7.50008C15.8333 5.95299 15.2187 4.46925 14.1248 3.37529C13.0308 2.28133 11.5471 1.66675 9.99998 1.66675ZM9.99998 17.5001C9.48277 17.5004 8.97821 17.3402 8.55583 17.0417C8.13345 16.7432 7.81405 16.321 7.64165 15.8334H12.3583C12.1859 16.321 11.8665 16.7432 11.4441 17.0417C11.0218 17.3402 10.5172 17.5004 9.99998 17.5001Z" fill="#9B3CFF"/>
</svg>
